<?xml version="1.0" encoding="UTF-8" standalone="no"?><svg xmlns="http://www.w3.org/2000/svg" xmlns:xlink="http://www.w3.org/1999/xlink" contentScriptType="application/ecmascript" contentStyleType="text/css" height="435.9375px" preserveAspectRatio="none" style="width:1015px;height:435px;" version="1.1" viewBox="0 0 1015 435" width="1015.625px" zoomAndPan="magnify"><defs/><g><text fill="#000000" font-family="sans-serif" font-size="21.875" font-weight="bold" lengthAdjust="spacingAndGlyphs" textLength="340.625" x="334.7656" y="35.9299">Example Sequence Diagram</text><polygon fill="#FFFFFF" points="644.5313,154.2603,644.5313,154.3697,647.6563,154.0445,650.7813,154.3609,653.9063,154.4684,657.0313,153.8887,660.1563,154.2603,660.0348,154.2603,659.4899,169.2316,659.557,184.203,660.0498,199.1744,659.076,214.1457,661.0213,229.1171,659.1714,244.0885,659.8472,259.0598,660.8312,274.0312,660.0222,289.0026,660.2629,303.9739,660.1563,318.9453,660.1563,318.9287,657.0313,319.0383,653.9063,319.0699,650.7813,319.2504,647.6563,319.2948,644.5313,318.9453,645.5926,318.9453,644.9291,303.9739,645.2556,289.0026,645.6285,274.0312,643.4044,259.0598,645.5914,244.0885,644.068,229.1171,645.3653,214.1457,643.7578,199.1744,644.4242,184.203,645.69,169.2316,644.5313,154.2603" style="stroke: #383838; stroke-width: 1.5625;"/><path d="M362.5,100.9277 L362.9379,100.9277 L361.6368,116.7609 L362.9027,132.594 L363.3327,148.4271 L361.0138,164.2603 L362.3381,180.0934 L361.6115,195.9265 L361.701,211.7596 L362.358,227.5928 L361.0596,243.4259 L363.6534,259.259 L361.1869,275.0922 L362.088,290.9253 L363.3999,306.7584 L362.3213,322.5916 L362.6422,338.4247 L362.4334,354.2578 L362.8719,370.0909 L362.9982,385.9241 L363.7202,401.7572 L362.5,417.5903 " fill="none" style="stroke: #383838; stroke-width: 1.5625; stroke-dasharray: 5.0,5.0;"/><path d="M652.3438,100.9277 L652.7816,100.9277 L651.4806,116.7609 L652.7464,132.594 L653.1764,148.4271 L650.8575,164.2603 L652.1818,180.0934 L651.4552,195.9265 L651.5448,211.7596 L652.2018,227.5928 L650.9034,243.4259 L653.4972,259.259 L651.0307,275.0922 L651.9317,290.9253 L653.2436,306.7584 L652.165,322.5916 L652.4859,338.4247 L652.2772,354.2578 L652.7157,370.0909 L652.8419,385.9241 L653.5639,401.7572 L652.3438,417.5903 " fill="none" style="stroke: #383838; stroke-width: 1.5625; stroke-dasharray: 5.0,5.0;"/><polygon fill="#F8F8F8" points="321.875,52.0264,321.875,52.3548,338.4375,51.379,355,52.3284,371.5625,52.6509,388.125,50.9117,404.6875,52.0264,404.647,52.0264,404.4654,61.4941,404.4878,70.9619,404.652,80.4297,404.3274,89.8975,404.6875,99.3652,404.6875,100.2303,388.125,98.3804,371.5625,99.0562,355,100.0402,338.4375,99.2312,321.875,99.3652,321.9105,99.3652,321.8584,89.8975,321.968,80.4297,321.9995,70.9619,322.18,61.4941,321.875,52.0264" style="stroke: #383838; stroke-width: 2.34375;"/><text fill="#000000" font-family="sans-serif" font-size="21.875" lengthAdjust="spacingAndGlyphs" textLength="60.9375" x="332.8125" y="83.2687">Client</text><polygon fill="#F8F8F8" points="607.0313,52.0264,607.0313,52.3548,622.1354,51.379,637.2396,52.3284,652.3438,52.6509,667.4479,50.9117,682.5521,51.9049,697.6563,52.0264,697.4341,52.0264,697.4565,61.4941,697.6208,70.9619,697.2962,80.4297,697.9446,89.8975,697.6563,99.3652,697.6563,98.3804,682.5521,99.0562,667.4479,100.0402,652.3438,99.2312,637.2396,99.4719,622.1354,99.3153,607.0313,99.3652,607.1242,99.3652,607.1558,89.8975,607.3363,80.4297,607.3808,70.9619,607.385,61.4941,607.0313,52.0264" style="stroke: #383838; stroke-width: 2.34375;"/><text fill="#000000" font-family="sans-serif" font-size="21.875" lengthAdjust="spacingAndGlyphs" textLength="68.75" x="617.9688" y="83.2687">Server</text><polygon fill="#FFFFFF" points="644.5313,154.2603,644.5313,154.3697,647.6563,154.0445,650.7813,154.3609,653.9063,154.4684,657.0313,153.8887,660.1563,154.2603,660.0348,154.2603,659.4899,169.2316,659.557,184.203,660.0498,199.1744,659.076,214.1457,661.0213,229.1171,659.1714,244.0885,659.8472,259.0598,660.8312,274.0312,660.0222,289.0026,660.2629,303.9739,660.1563,318.9453,660.1563,318.9287,657.0313,319.0383,653.9063,319.0699,650.7813,319.2504,647.6563,319.2948,644.5313,318.9453,645.5926,318.9453,644.9291,303.9739,645.2556,289.0026,645.6285,274.0312,643.4044,259.0598,645.5914,244.0885,644.068,229.1171,645.3653,214.1457,643.7578,199.1744,644.4242,184.203,645.69,169.2316,644.5313,154.2603" style="stroke: #383838; stroke-width: 1.5625;"/><polygon fill="#383838" points="625.7813,148.0103,625.8219,148.1119,628.8261,149.0599,632.0686,150.6037,635.2336,151.9535,638.1433,152.6653,641.4063,154.2603,641.3912,154.2227,638.1988,155.304,635.0821,156.5748,632.0181,157.9773,628.7725,158.9259,625.7813,160.5103,626.0696,160.5103,625.453,158.0103,625.6782,155.5103,626.0062,153.0103,625.7366,150.5103,625.7813,148.0103" style="stroke: #383838; stroke-width: 1.5625;"/><path d="M371.0938,154.2603 L371.0938,154.6981 L386.6268,153.3971 L402.1599,154.6629 L417.693,155.0929 L433.2261,152.774 L448.7592,154.0984 L464.2923,153.3717 L479.8254,153.4613 L495.3585,154.1183 L510.8915,152.8199 L526.4246,155.4137 L541.9577,152.9472 L557.4908,153.8482 L573.0239,155.1601 L588.557,154.0816 L604.0901,154.4024 L619.6232,154.1937 L635.1563,154.2603 " fill="none" style="stroke: #383838; stroke-width: 1.5625;"/><text fill="#000000" font-family="sans-serif" font-size="20.3125" lengthAdjust="spacingAndGlyphs" textLength="168.75" x="382.0313" y="146.3448">Session Initiation</text><path d="M667.1875,124.3652 L667.4794,124.3652 L666.6121,132.1777 L667.456,139.9902 L667.7426,147.8027 L666.1967,155.6152 L667.1875,163.4277 L667.1875,163.1039 L682.6563,161.6507 L698.125,161.8298 L713.5938,163.1437 L729.0625,160.547 L744.5313,165.7346 L760,160.8016 L775.4688,162.6037 L790.9375,165.2275 L806.4063,163.0703 L821.875,163.7121 L837.3438,163.2946 L852.8125,164.1716 L868.2813,164.4241 L883.75,165.8681 L899.2188,166.2238 L914.6875,166.258 L930.1562,164.4887 L945.625,165.3593 L961.0938,166.3537 L976.5625,163.4277 L975.5609,163.4277 L977.5049,158.7402 L976.1507,154.0527 L977.3039,149.3652 L975.875,144.6777 L976.5625,139.9902 L976.4952,139.923 L974.1658,137.5936 L970.2646,133.6924 L967.2909,130.7187 L964.3951,127.8228 L960.9375,124.3652 L960.9375,126.0995 L945.477,124.349 L930.0164,125.562 L914.5559,121.9802 L899.0954,125.5502 L883.6349,126.6494 L868.1743,126.2175 L852.7138,126.9195 L837.2533,122.3524 L821.7928,121.6478 L806.3322,121.7761 L790.8717,124.1199 L775.4112,123.5464 L759.9507,127.2044 L744.4901,123.6374 L729.0296,122.9358 L713.5691,125.3164 L698.1086,121.5867 L682.648,122.2022 L667.1875,124.3652 " fill="#ECECEC" style="stroke: #383838; stroke-width: 1.5625;"/><path d="M960.9375,124.3652 L961.8388,124.3652 L961.5426,127.4902 L961.9576,130.6152 L960.4906,133.7402 L961.3808,136.8652 L960.9375,139.9902 L960.9375,140.8103 L964.0625,139.3341 L967.1875,139.8571 L970.3125,140.1652 L973.4375,140.8955 L976.5625,139.9902 L976.5584,139.9861 L973.8918,137.3195 L969.7686,133.1964 L966.5224,129.9501 L964.5571,127.9848 L960.9375,124.3652 " fill="#ECECEC" style="stroke: #383838; stroke-width: 1.5625;"/><text fill="#000000" font-family="sans-serif" font-size="20.3125" lengthAdjust="spacingAndGlyphs" textLength="276.5625" x="676.5625" y="151.0323">Client requests new session</text><polygon fill="#383838" points="388.2813,202.9053,388.3219,203.0069,385.0761,203.9549,382.0686,205.4987,378.9836,206.8486,375.6433,207.5603,372.6563,209.1553,372.6412,209.1177,375.6988,210.199,378.8321,211.4698,382.0181,212.8723,385.0225,213.8209,388.2813,215.4053,388.5696,215.4053,387.953,212.9053,388.1782,210.4053,388.5062,207.9053,388.2366,205.4053,388.2813,202.9053" style="stroke: #383838; stroke-width: 1.5625;"/><path d="M378.9063,209.1553 L378.9063,209.5932 L394.4393,208.2921 L409.9724,209.558 L425.5055,209.9879 L441.0386,207.669 L456.5717,208.9934 L472.1048,208.2667 L487.6379,208.3563 L503.171,209.0133 L518.704,207.7149 L534.2371,210.3087 L549.7702,207.8422 L565.3033,208.7433 L580.8364,210.0552 L596.3695,208.9766 L611.9026,209.2974 L627.4357,209.0887 L642.9688,209.1553 " fill="none" style="stroke: #383838; stroke-width: 1.5625; stroke-dasharray: 2.0,2.0;"/><text fill="#000000" font-family="sans-serif" font-size="20.3125" lengthAdjust="spacingAndGlyphs" textLength="220.3125" x="397.6563" y="201.2398">Authorization Request</text><path d="M12.5,179.2603 L12.7919,179.2603 L11.9246,187.0728 L12.7685,194.8853 L13.0551,202.6978 L11.5092,210.5103 L12.5,218.3228 L12.5,217.9989 L27.7699,216.5457 L43.0398,216.7248 L58.3097,218.0388 L73.5795,215.4421 L88.8494,220.6296 L104.1193,215.6966 L119.3892,217.4987 L134.6591,220.1225 L149.929,217.9654 L165.1989,218.6071 L180.4688,218.1896 L195.7386,219.0666 L211.0085,219.3191 L226.2784,220.7631 L241.5483,221.1188 L256.8182,221.153 L272.0881,219.3837 L287.358,220.2544 L302.6278,221.2487 L317.8977,215.3178 L333.1676,221.1499 L348.4375,218.3228 L348.0257,218.3228 L349.1789,213.6353 L347.75,208.9478 L348.3424,204.2603 L349.4675,199.5728 L348.4375,194.8853 L348.3896,194.8374 L345.4159,191.8637 L342.5201,188.9678 L339.4713,185.919 L335.9337,182.3814 L332.8125,179.2603 L332.8125,180.457 L317.5595,176.8752 L302.3065,180.4452 L287.0536,181.5444 L271.8006,181.1125 L256.5476,181.8145 L241.2946,177.2474 L226.0417,176.5428 L210.7887,176.6711 L195.5357,179.0149 L180.2827,178.4414 L165.0298,182.0995 L149.7768,178.5324 L134.5238,177.8309 L119.2708,180.2114 L104.0179,176.4818 L88.7649,177.0972 L73.5119,181.9642 L58.2589,181.0755 L43.006,182.3206 L27.753,177.9194 L12.5,179.2603 " fill="#ECECEC" style="stroke: #383838; stroke-width: 1.5625;"/><path d="M332.8125,179.2603 L333.2558,179.2603 L333.6325,182.3853 L332.1564,185.5103 L332.6794,188.6353 L332.9875,191.7603 L332.8125,194.8853 L332.8125,195.7905 L335.9375,194.8794 L339.0625,195.5277 L342.1875,194.1161 L345.3125,193.9446 L348.4375,194.8853 L348.9321,195.3798 L344.6084,191.0562 L342.6873,189.1351 L339.2654,185.7132 L335.6744,182.1221 L332.8125,179.2603 " fill="#ECECEC" style="stroke: #383838; stroke-width: 1.5625;"/><text fill="#000000" font-family="sans-serif" font-size="20.3125" lengthAdjust="spacingAndGlyphs" textLength="303.125" x="21.875" y="205.9273">Server requires authentication</text><polygon fill="#383838" points="625.7813,257.8003,625.8219,257.9019,628.8261,258.8499,632.0686,260.3938,635.2336,261.7436,638.1433,262.4553,641.4063,264.0503,641.3912,264.0127,638.1988,265.094,635.0821,266.3648,632.0181,267.7673,628.7725,268.716,625.7813,270.3003,626.0696,270.3003,625.453,267.8003,625.6782,265.3003,626.0062,262.8003,625.7366,260.3003,625.7813,257.8003" style="stroke: #383838; stroke-width: 1.5625;"/><path d="M371.0938,264.0503 L371.0938,264.4882 L386.6268,263.1871 L402.1599,264.453 L417.693,264.883 L433.2261,262.5641 L448.7592,263.8884 L464.2923,263.1618 L479.8254,263.2513 L495.3585,263.9083 L510.8915,262.6099 L526.4246,265.2037 L541.9577,262.7372 L557.4908,263.6383 L573.0239,264.9502 L588.557,263.8716 L604.0901,264.1925 L619.6232,263.9837 L635.1563,264.0503 " fill="none" style="stroke: #383838; stroke-width: 1.5625;"/><text fill="#000000" font-family="sans-serif" font-size="20.3125" lengthAdjust="spacingAndGlyphs" textLength="235.9375" x="382.0313" y="256.1348">Authorization Response</text><path d="M667.1875,234.1553 L667.4794,234.1553 L666.6121,241.9678 L667.456,249.7803 L667.7426,257.5928 L666.1967,265.4053 L667.1875,273.2178 L667.1875,272.894 L682.8869,271.4407 L698.5863,271.6199 L714.2857,272.9338 L729.9851,270.3371 L745.6845,275.5246 L761.3839,270.5916 L777.0833,272.3937 L792.7827,275.0176 L808.4821,272.8604 L824.1815,273.5021 L839.881,273.0847 L855.5804,273.9616 L871.2798,274.2142 L886.9792,275.6581 L902.6786,276.0138 L918.378,276.048 L934.0774,274.2787 L949.7768,275.1494 L965.4762,276.1437 L981.1756,270.2128 L996.875,273.2178 L997.8174,273.2178 L996.4632,268.5303 L997.6164,263.8428 L996.1875,259.1553 L996.7799,254.4678 L996.875,249.7803 L997.6033,250.5086 L993.7021,246.6074 L990.7284,243.6337 L987.8326,240.7378 L984.7838,237.6891 L981.25,234.1553 L981.25,234.139 L965.5469,235.352 L949.8438,231.7702 L934.1406,235.3402 L918.4375,236.4394 L902.7344,236.0075 L887.0313,236.7095 L871.3281,232.1424 L855.625,231.4378 L839.9219,231.5661 L824.2188,233.9099 L808.5156,233.3364 L792.8125,236.9945 L777.1094,233.4275 L761.4062,232.7259 L745.7031,235.1064 L730,231.3768 L714.2969,231.9923 L698.5938,236.8592 L682.8906,235.9706 L667.1875,234.1553 " fill="#ECECEC" style="stroke: #383838; stroke-width: 1.5625;"/><path d="M981.25,234.1553 L982.2701,234.1553 L980.8031,237.2803 L981.6933,240.4053 L982.07,243.5303 L980.5939,246.6553 L981.25,249.7803 L981.25,249.6471 L984.375,249.9553 L987.5,250.6855 L990.625,249.7745 L993.75,250.4227 L996.875,249.7803 L996.3311,249.2364 L993.0849,245.9901 L991.1196,244.0249 L986.7959,239.7012 L984.8748,237.7801 L981.25,234.1553 " fill="#ECECEC" style="stroke: #383838; stroke-width: 1.5625;"/><text fill="#000000" font-family="sans-serif" font-size="20.3125" lengthAdjust="spacingAndGlyphs" textLength="296.875" x="676.5625" y="260.8223">Client provides authentication</text><polygon fill="#383838" points="388.2813,312.6953,388.3219,312.797,385.0761,313.745,382.0686,315.2888,378.9836,316.6386,375.6433,317.3503,372.6563,318.9453,372.6412,318.9077,375.6988,319.9891,378.8321,321.2599,382.0181,322.6624,385.0225,323.611,388.2813,325.1953,388.5696,325.1953,387.953,322.6953,388.1782,320.1953,388.5062,317.6953,388.2366,315.1953,388.2813,312.6953" style="stroke: #383838; stroke-width: 1.5625;"/><path d="M378.9063,318.9453 L378.9063,319.3832 L394.8989,318.0821 L410.8915,319.348 L426.8842,319.778 L442.8768,317.4591 L458.8695,318.7834 L474.8621,318.0568 L490.8548,318.1464 L506.8474,318.8033 L522.8401,317.505 L538.8327,320.0987 L554.8254,317.6322 L570.818,318.5333 L586.8107,319.8452 L602.8033,318.7666 L618.796,319.0875 L634.7886,318.8788 L650.7813,318.9453 " fill="none" style="stroke: #383838; stroke-width: 1.5625; stroke-dasharray: 2.0,2.0;"/><text fill="#000000" font-family="sans-serif" font-size="20.3125" lengthAdjust="spacingAndGlyphs" textLength="143.75" x="397.6563" y="311.0298">Session Token</text><path d="M115.625,289.0503 L115.9169,289.0503 L115.0496,296.8628 L115.8935,304.6753 L116.1801,312.4878 L114.6342,320.3003 L115.625,328.1128 L115.625,327.789 L131.0417,326.3357 L146.4583,326.5149 L161.875,327.8288 L177.2917,325.2321 L192.7083,330.4196 L208.125,325.4866 L223.5417,327.2888 L238.9583,329.9126 L254.375,327.7554 L269.7917,328.3971 L285.2083,327.9797 L300.625,328.8567 L316.0417,329.1092 L331.4583,330.5532 L346.875,328.1128 L347.807,328.1128 L347.8184,323.4253 L347.2286,318.7378 L347.5189,314.0503 L347.8503,309.3628 L346.875,304.6753 L346.1667,303.967 L344.4164,302.2167 L340.3338,298.1341 L338.0243,295.8245 L333.8888,291.6891 L331.25,289.0503 L331.25,288.7649 L315.8482,292.1403 L300.4464,288.8472 L285.0446,289.4891 L269.6429,290.4612 L254.2411,290.7846 L238.8393,289.034 L223.4375,290.247 L208.0357,286.6652 L192.6339,290.2352 L177.2321,291.3344 L161.8304,290.9025 L146.4286,291.6046 L131.0268,287.0375 L115.625,289.0503 " fill="#ECECEC" style="stroke: #383838; stroke-width: 1.5625;"/><path d="M331.25,289.0503 L330.3442,289.0503 L330.3869,292.1753 L331.1682,295.3003 L330.977,298.4253 L332.1964,301.5503 L331.25,304.6753 L331.25,304.4327 L334.375,304.1988 L337.5,304.9923 L340.625,303.7491 L343.75,303.9543 L346.875,304.6753 L347.5123,305.3126 L344.1779,301.9782 L341.3463,299.1466 L337.184,294.9843 L334.6885,292.4888 L331.25,289.0503 " fill="#ECECEC" style="stroke: #383838; stroke-width: 1.5625;"/><text fill="#000000" font-family="sans-serif" font-size="20.3125" lengthAdjust="spacingAndGlyphs" textLength="198.4375" x="125" y="315.7173">Session established</text><path d="M371.0938,376.9653 L371.0938,377.1113 L384.2188,376.6776 L397.3438,377.0996 L410.4688,377.2429 L423.5938,376.4699 L436.7188,376.9653 " fill="none" style="stroke: #383838; stroke-width: 1.5625;"/><path d="M436.7188,376.9653 L436.8647,376.9653 L436.431,381.0278 L436.853,385.0903 L436.9963,389.1528 L436.2233,393.2153 L436.7188,397.2778 " fill="none" style="stroke: #383838; stroke-width: 1.5625;"/><path d="M363.2813,397.2778 L363.2813,397.7157 L377.9688,396.4147 L392.6563,397.6805 L407.3438,398.1105 L422.0313,395.7916 L436.7188,397.2778 " fill="none" style="stroke: #383838; stroke-width: 1.5625;"/><polygon fill="#383838" points="378.9063,391.0278,378.9469,391.1295,375.7011,392.0775,372.6936,393.6213,369.6086,394.9711,366.2683,395.6828,363.2813,397.2778,363.2662,397.2403,366.3238,398.3216,369.4571,399.5924,372.6431,400.9949,375.6475,401.9435,378.9063,403.5278,379.1946,403.5278,378.578,401.0278,378.8032,398.5278,379.1312,396.0278,378.8616,393.5278,378.9063,391.0278" style="stroke: #383838; stroke-width: 1.5625;"/><text fill="#000000" font-family="sans-serif" font-size="20.3125" lengthAdjust="spacingAndGlyphs" textLength="123.4375" x="382.0313" y="369.0498">Saves token</text><!--
@startuml
skinparam monochrome true
skinparam dpi 150
skinparam backgroundColor transparent
skinparam classBackgroundColor transparent
skinparam style strictuml
skinparam handwritten true

title Example Sequence Diagram
activate Client
Client -> Server: Session Initiation
note right: Client requests new session
activate Server
Client <- - Server: Authorization Request
note left: Server requires authentication
Client -> Server: Authorization Response
note right: Client provides authentication
Server - -> Client: Session Token
note left: Session established
deactivate Server
Client -> Client: Saves token
deactivate Client
@enduml

PlantUML version 1.2018.13(Mon Nov 26 17:11:51 GMT 2018)
(GPL source distribution)
Java Runtime: OpenJDK Runtime Environment
JVM: OpenJDK 64-Bit Server VM
Java Version: 11.0.6+10-post-Debian-1deb10u1
Operating System: Linux
OS Version: 4.19.0-8-amd64
Default Encoding: UTF-8
Language: en
Country: GB
--></g></svg>